# xmcd
#
# Track frame offsets: 
#        150
#        18313
#        34924
#        48081
#        57526
#        68556
#        85485
#        98008
#        108064
#        123712
#
# Disc length: 1875 seconds
#
# Revision: 0
# Processed by: cddbd v1.5.2PL0 Copyright (c) Steve Scherf et al.
# Submitted via: ExactAudioCopy v1.3
#
DISCID=7d07510a
DTITLE=The Earl Scruggs Revue - Anniversary Special Volume Two
DYEAR=1976
DGENRE=Bluegrass
TTITLE0=Rita Ballou
TTITLE1=Harbor For My Soul
TTITLE2=I've Got a Thing About You Baby
TTITLE3=Instrumental In D Minor
TTITLE4=Every Man Has Got His Own Price
TTITLE5=Harley
TTITLE6=Broad River
TTITLE7=Fairy Tale
TTITLE8=I Still Miss Someone
TTITLE9=My Ship Will Sail
EXTD=
EXTT0=
EXTT1=
EXTT2=
EXTT3=
EXTT4=
EXTT5=
EXTT6=
EXTT7=
EXTT8=
EXTT9=
PLAYORDER=
